<?xml version="1.0" encoding="UTF-8" ?>
<!DOCTYPE svg PUBLIC "-//W3C//DTD SVG 1.1//EN" "http://www.w3.org/Graphics/SVG/1.1/DTD/svg11.dtd">
<svg width="640pt" height="640pt" viewBox="0 0 640 640" version="1.1" xmlns="http://www.w3.org/2000/svg">
<g id="#000000ff">
<path fill="#000000" opacity="1.00" d=" M 493.55 61.69 C 493.54 61.42 493.53 60.89 493.52 60.62 C 503.84 70.59 514.82 79.93 524.17 90.87 C 550.29 119.51 571.01 153.21 583.81 189.85 C 594.07 219.39 599.55 250.68 599.00 281.98 C 599.99 322.90 589.37 363.64 571.09 400.10 C 555.62 430.58 534.41 458.20 508.54 480.58 C 475.43 509.41 434.42 529.40 390.97 536.34 C 360.66 541.39 329.38 540.22 299.46 533.23 C 264.90 525.05 232.16 508.19 206.53 483.46 C 186.27 463.98 170.70 439.69 161.41 413.17 C 152.91 389.13 149.52 363.42 150.59 337.98 C 152.91 304.97 166.13 272.81 187.57 247.62 C 200.53 232.25 216.79 219.58 235.15 211.32 C 260.56 199.57 289.74 197.83 316.98 203.23 C 340.03 207.84 362.13 219.38 377.23 237.68 C 392.40 255.94 400.13 279.87 399.71 303.52 C 406.15 303.23 410.77 297.86 413.52 292.52 C 417.53 284.30 419.59 275.13 419.64 266.00 C 420.69 240.94 407.95 217.44 391.35 199.48 C 357.77 163.70 306.67 145.61 258.03 151.53 C 205.98 157.25 158.04 186.05 124.80 225.96 C 93.11 263.72 74.39 311.94 71.34 361.07 C 70.00 374.32 70.44 387.69 71.42 400.95 C 74.73 444.47 89.07 486.69 110.12 524.75 C 120.07 542.66 131.43 559.80 144.27 575.77 C 145.03 576.94 146.77 577.78 146.48 579.37 C 141.12 573.78 135.00 568.97 129.56 563.45 C 99.14 533.69 74.31 497.86 59.09 458.00 C 49.36 432.72 43.41 405.98 41.47 378.96 C 40.86 367.98 40.95 356.98 41.05 345.99 C 41.91 315.23 49.36 284.84 61.20 256.50 C 75.26 223.33 95.98 192.93 122.02 168.00 C 148.17 142.89 179.81 123.34 214.33 112.08 C 246.92 101.44 281.89 98.01 315.91 102.41 C 365.26 108.09 413.25 131.29 445.60 169.44 C 473.53 201.85 488.60 244.40 489.51 287.00 C 491.05 325.19 477.00 363.47 452.32 392.50 C 439.33 407.82 423.08 420.49 404.72 428.72 C 388.25 436.18 370.10 439.93 352.03 439.62 C 327.11 439.69 301.60 433.54 281.01 419.10 C 266.17 408.73 254.54 393.96 247.80 377.18 C 242.60 364.29 240.09 350.35 240.28 336.47 C 234.10 336.73 229.51 341.79 226.77 346.90 C 220.35 359.30 219.28 373.78 221.02 387.44 C 224.62 409.88 237.47 429.79 253.49 445.48 C 283.77 474.62 326.04 490.80 368.02 489.46 C 405.44 488.42 441.91 474.81 472.41 453.41 C 502.49 432.33 527.08 403.59 543.64 370.83 C 563.02 332.81 571.35 289.50 569.07 247.00 C 567.26 206.96 555.93 167.70 538.45 131.75 C 526.19 106.81 511.34 83.05 493.55 61.69 Z" />
</g>
</svg>
