<?xml version="1.0" encoding="UTF-8" ?>
<!DOCTYPE svg PUBLIC "-//W3C//DTD SVG 1.1//EN" "http://www.w3.org/Graphics/SVG/1.1/DTD/svg11.dtd">
<svg width="358pt" height="336pt" viewBox="0 0 358 336" version="1.1" xmlns="http://www.w3.org/2000/svg">
<g id="#6ab2e4ff">
<path fill="#6ab2e4" opacity="1.00" d=" M 159.78 11.77 C 169.14 5.32 181.96 4.13 191.99 9.74 C 230.64 31.91 269.24 54.19 307.89 76.37 C 315.75 80.85 321.55 88.93 322.91 97.91 C 323.56 101.24 323.33 104.64 323.36 108.01 C 323.36 150.67 323.36 193.34 323.36 236.00 C 323.35 245.34 318.79 254.74 311.09 260.11 C 273.10 282.12 235.12 304.13 197.13 326.12 C 193.38 328.21 189.84 330.86 185.60 331.85 C 178.38 333.75 170.33 333.01 163.91 329.04 C 147.32 319.51 130.66 310.09 114.26 300.25 C 117.72 294.40 121.19 288.56 124.63 282.70 C 125.40 283.53 126.17 284.37 127.20 284.89 C 142.69 293.68 158.13 302.57 173.59 311.42 C 176.27 312.85 179.76 313.28 182.44 311.60 C 196.26 303.61 210.07 295.60 223.91 287.64 C 209.06 264.01 193.89 240.58 178.99 216.98 C 187.14 202.83 195.57 188.85 203.73 174.70 C 204.53 173.32 205.28 171.82 206.66 170.92 C 225.93 201.93 245.98 232.46 265.11 263.54 C 269.14 261.38 273.04 258.99 276.99 256.68 C 267.83 240.81 257.75 225.45 248.25 209.76 C 239.53 195.57 230.71 181.44 221.99 167.24 C 219.69 163.46 217.07 159.84 215.14 155.84 C 215.38 154.65 216.07 153.63 216.65 152.58 C 223.76 140.69 230.75 128.72 237.85 116.83 C 238.50 115.14 239.85 117.04 240.26 117.82 C 260.99 150.32 281.89 182.73 302.75 215.15 C 302.98 213.77 303.12 212.38 303.18 210.98 C 303.15 174.98 303.22 138.98 303.18 102.98 C 303.42 98.41 300.22 94.59 296.26 92.76 C 258.35 71.03 220.50 49.22 182.64 27.40 C 179.34 25.36 175.00 25.88 171.79 27.84 C 134.16 49.56 96.59 71.36 58.97 93.09 C 55.42 95.09 52.27 98.71 52.52 103.02 C 52.56 138.20 52.60 173.39 52.61 208.58 C 53.60 207.81 54.60 207.06 55.60 206.32 C 55.75 206.80 56.06 207.78 56.21 208.27 C 54.24 207.61 53.66 209.69 52.71 210.78 C 45.93 221.16 39.05 231.49 32.47 241.99 C 32.27 195.66 32.45 149.33 32.38 103.00 C 32.15 92.52 37.98 82.19 47.08 77.00 C 84.70 55.34 122.18 33.46 159.78 11.77 Z" />
</g>
<g id="#2d374bff">
<path fill="#2d374b" opacity="1.00" d=" M 171.79 27.84 C 175.00 25.88 179.34 25.36 182.64 27.40 C 220.50 49.22 258.35 71.03 296.26 92.76 C 300.22 94.59 303.42 98.41 303.18 102.98 C 303.22 138.98 303.15 174.98 303.18 210.98 C 303.12 212.38 302.98 213.77 302.75 215.15 C 281.89 182.73 260.99 150.32 240.26 117.82 C 239.85 117.04 238.50 115.14 237.85 116.83 C 230.75 128.72 223.76 140.69 216.65 152.58 C 216.07 153.63 215.38 154.65 215.14 155.84 C 217.07 159.84 219.69 163.46 221.99 167.24 C 230.71 181.44 239.53 195.57 248.25 209.76 C 257.75 225.45 267.83 240.81 276.99 256.68 C 273.04 258.99 269.14 261.38 265.11 263.54 C 245.98 232.46 225.93 201.93 206.66 170.92 C 205.28 171.82 204.53 173.32 203.73 174.70 C 195.57 188.85 187.14 202.83 178.99 216.98 C 193.89 240.58 209.06 264.01 223.91 287.64 C 210.07 295.60 196.26 303.61 182.44 311.60 C 179.76 313.28 176.27 312.85 173.59 311.42 C 158.13 302.57 142.69 293.68 127.20 284.89 C 126.17 284.37 125.40 283.53 124.63 282.70 C 160.49 222.50 195.79 161.94 231.55 101.67 C 215.88 101.55 200.21 101.86 184.54 101.65 C 183.95 102.41 183.38 103.19 182.85 103.99 C 147.49 162.25 112.23 220.58 76.83 278.82 C 72.55 276.58 68.44 274.05 64.31 271.56 C 99.58 214.91 134.97 158.33 170.26 101.68 C 157.15 101.47 143.64 99.86 130.96 104.13 C 123.63 106.45 116.64 110.93 112.71 117.68 C 93.71 147.25 74.44 176.66 55.60 206.32 C 54.60 207.06 53.60 207.81 52.61 208.58 C 52.60 173.39 52.56 138.20 52.52 103.02 C 52.27 98.71 55.42 95.09 58.97 93.09 C 96.59 71.36 134.16 49.56 171.79 27.84 Z" />
</g>
<g id="#ffffffff">
<path fill="#ffffff" opacity="1.00" d=" M 130.96 104.13 C 143.64 99.86 157.15 101.47 170.26 101.68 C 134.97 158.33 99.58 214.91 64.31 271.56 L 64.17 271.78 C 53.76 265.36 42.97 259.52 32.43 253.30 C 32.43 249.53 32.30 245.76 32.47 241.99 C 39.05 231.49 45.93 221.16 52.71 210.78 C 53.66 209.69 54.24 207.61 56.21 208.27 C 56.06 207.78 55.75 206.80 55.60 206.32 C 74.44 176.66 93.71 147.25 112.71 117.68 C 116.64 110.93 123.63 106.45 130.96 104.13 Z" />
<path fill="#ffffff" opacity="1.00" d=" M 182.85 103.99 C 183.38 103.19 183.95 102.41 184.54 101.65 C 200.21 101.86 215.88 101.55 231.55 101.67 C 195.79 161.94 160.49 222.50 124.63 282.70 C 121.19 288.56 117.72 294.40 114.26 300.25 L 114.12 300.50 C 101.81 293.08 89.25 286.05 76.74 278.96 L 76.83 278.82 C 112.23 220.58 147.49 162.25 182.85 103.99 Z" />
</g>
</svg>
